<svg width="42" height="50" viewBox="0 0 32 50" fill="none" xmlns="http://www.w3.org/2000/svg">
  <g clip-path="url(#clip0_637_2323)">
    <path d="M15.9451 21.4994L13.0694 20.1955L13.0802 19.1705C13.0802 18.4787 12.4717 17.8884 11.2548 17.4067C10.4109 17.0734 9.48732 16.9105 8.48044 16.9105C7.47356 16.9105 6.54998 17.0771 5.70609 17.4067C4.48913 17.8992 3.88066 18.486 3.88066 19.1705V32.5859C3.88066 33.2777 4.48913 33.8681 5.70609 34.3498C6.54998 34.683 7.47356 34.846 8.48044 34.846C9.48732 34.846 10.4109 34.6794 11.2548 34.3498C12.4717 33.8572 13.0802 33.2705 13.0802 32.5859V28.9677H13.2323L16.0972 30.3259V32.5859C16.0972 34.4259 14.9564 35.8167 12.6746 36.762C11.3997 37.2944 10.0016 37.5624 8.48406 37.5624C6.9665 37.5624 5.56845 37.2944 4.29355 36.762C2.01177 35.813 0.87088 34.4222 0.87088 32.5823V19.1669C0.87088 17.327 2.01177 15.9362 4.29355 14.9909C5.56845 14.4584 6.9665 14.1904 8.48406 14.1904C10.0016 14.1904 11.3997 14.4584 12.6746 14.9909C14.9564 15.9362 16.0972 17.327 16.0972 19.1669V21.4994H15.9451Z" fill="#81FE88"/>
    <path d="M16.0936 30.3223C16.0936 30.3223 13.4967 29.1995 13.0694 27.9102L13.0802 29.4748L16.0936 30.3223Z" fill="#81FE88"/>
    <path d="M13.0259 22.1043L15.9017 23.4082L15.8908 24.4332C15.8908 25.125 16.4993 25.7153 17.7162 26.197C18.5601 26.5303 19.4837 26.6932 20.4906 26.6932C21.4938 26.6932 22.421 26.5266 23.2649 26.197C24.4819 25.7045 25.0904 25.1177 25.0904 24.4332V11.0214C25.0904 10.3296 24.4819 9.73924 23.2649 9.25753C22.421 8.92431 21.4975 8.76133 20.4906 8.76133C19.4873 8.76133 18.5601 8.92793 17.7162 9.25753C16.4993 9.7501 15.8908 10.3368 15.8908 11.0214V14.6396H15.7387L12.8738 13.2814V11.0214C12.8738 9.18147 14.0147 7.79067 16.2965 6.84536C17.5714 6.31294 18.9694 6.04492 20.487 6.04492C22.0045 6.04492 23.4026 6.31294 24.6775 6.84536C26.9593 7.79067 28.1001 9.18147 28.1001 11.0214V24.4368C28.1001 26.2767 26.9593 27.6675 24.6775 28.6128C23.4026 29.1452 22.0045 29.4133 20.487 29.4133C18.9694 29.4133 17.5714 29.1452 16.2965 28.6128C14.0147 27.6675 12.8738 26.2767 12.8738 24.4368V22.1043H13.0259Z" fill="#81FE88"/>
    <path d="M12.8774 13.2812C12.8774 13.2812 15.4743 14.404 15.9017 15.6934L15.8908 14.1288L12.8774 13.2812Z" fill="#81FE88"/>
  </g>
  <defs>
    <clipPath id="clip0_637_2323">
      <rect  width="42" height="50" fill="white" transform="translate(0.87088)"/>
    </clipPath>
  </defs>
</svg>